# xmcd
#
# Track frame offsets:
#	150
#	9907
#	26712
#	50157
#	69115
#	92302
#	110067
#	131472
#	155092
#	165110
#	181647
#	205722
#	228587
#
# Disc length: 3272 seconds
#
# Revision: 5
# Processed by: cddbd v1.5.2PL0 Copyright (c) Steve Scherf et al.
# Submitted via: CDmax 1.9
#
DISCID=970cc60d
DTITLE=Little Axe - Slow Fuse
DYEAR=1996
DGENRE=Blues
TTITLE0=Blue
TTITLE1=On The Beat Sound
TTITLE2=Storm Is Rising
TTITLE3=Black Diamond Train
TTITLE4=Short Fuse
TTITLE5=Going Down Slow
TTITLE6=Must Have Been The Devil
TTITLE7=People Do
TTITLE8=Amber
TTITLE9=Chains
TTITLE10=Return
TTITLE11=Too Late
TTITLE12=Speak Easy
EXTD=
EXTT0=
EXTT1=
EXTT2=
EXTT3=
EXTT4=
EXTT5=
EXTT6=
EXTT7=
EXTT8=
EXTT9=
EXTT10=
EXTT11=
EXTT12=
PLAYORDER=
